<?xml version="1.0" encoding="UTF-8"?>
<svg width="139px" height="130px" viewBox="0 0 139 130" version="1.1" xmlns="http://www.w3.org/2000/svg" xmlns:xlink="http://www.w3.org/1999/xlink">
    <title>cifro-hub</title>
    <g id="Page-1" stroke="none" stroke-width="1">
        <g id="cifro-hub" transform="translate(0.727, 0.8738)">
            <path d="M88.2093989,41.0756241 L96.005,40.8732545 L101.6745,40.7260772 C104.72545,40.6468762 107.262938,43.0559543 107.342139,46.1069038 C107.34338,46.1546958 107.344,46.2025019 107.344,46.25031 L107.344,50.0987549 C107.344,53.2401938 104.815748,55.7965005 101.6745,55.8311654 C98.5332523,55.8658304 96.005,58.422137 96.005,61.563576 L96.005,78.1071697 L96.005,85.6174078 C96.005,89.6589208 92.7287064,92.9352143 88.6871935,92.9352143 C88.6238847,92.9352143 88.5605786,92.9343928 88.4972911,92.9327498 L80.815,92.7333216 L52.789,92.0057815 L44.6710286,91.7950432 C40.7359149,91.6928897 37.599,88.4734854 37.599,84.537046 L37.599,77.462635 L37.599,71.2978556 C37.599,67.8998416 34.8443654,65.145207 31.4463514,65.145207 C31.4423118,65.145207 31.4382722,65.1452109 31.4342326,65.1452189 L20.1717533,65.1674025 C17.9852868,65.1717091 16.2093143,63.4027191 16.2050077,61.2162526 C16.2050026,61.2136534 16.205,61.2110541 16.205,61.2084548 C16.205,58.7045764 17.3568598,56.339893 19.3283897,54.7963657 L20.0535,54.2286707 C22.5507795,52.2735296 25.6178295,51.1866609 28.7889668,51.1330885 L37.599,50.9842541 L42.734,50.8975047 L47.7615,50.8125714 C50.4916004,50.7664498 52.742173,52.9422446 52.7882946,55.672345 C52.7887649,55.7001793 52.789,55.7280172 52.789,55.7558555 L52.789,64.1789506 C52.789,71.6317954 58.7871024,77.6964546 66.2394934,77.7786948 L69.8765746,77.8188316 C75.8514016,77.8847663 80.7484066,73.0946626 80.8143413,67.1198356 C80.8147804,67.080042 80.815,67.0402463 80.815,67.0004502 L80.815,56.0613588 L80.815,48.6644688 C80.815,44.5485914 84.0949076,41.1824342 88.2093989,41.0756241 Z" id="Path" stroke="#1F1A17" stroke-width="0.0762" fill="#FFFFFF"></path>
            <path d="M17.2908113,49.662775 L53.1121923,15.2843048 C62.0116899,6.74328533 76.0643101,6.74328533 84.9638077,15.2843048 L120.78539,49.6629679 C129.950133,58.4585486 130.249398,73.0182679 121.453817,82.183011 C121.235644,82.4103415 121.012822,82.6331648 120.785493,82.8513396 L98.4754876,104.262948 C96.5807029,106.081433 93.5795124,106.05059 91.7225,104.19355 C89.914032,102.385055 89.9140539,99.4529271 91.722549,97.6444591 C91.7449756,97.6220328 91.767632,97.5998375 91.7905147,97.5778767 L107.135094,82.8514482 C116.299855,74.0558862 116.59915,59.4961676 107.803588,50.3314065 C107.585335,50.1039918 107.362429,49.8810877 107.135014,49.6628354 L84.9638374,28.3850229 C76.0643115,19.8440938 62.0117494,19.8441572 53.1123005,28.3851665 L30.9416806,49.6628292 C21.7769563,58.4584296 21.4777222,73.0181495 30.2733226,82.1828738 C30.491529,82.4102377 30.7143852,82.6330929 30.94175,82.8512984 L46.2864853,97.5778767 C48.1317528,99.3488082 48.192014,102.280317 46.4210824,104.125584 C46.3991216,104.148467 46.3769263,104.171123 46.3545,104.19355 C44.4974814,106.050596 41.4962865,106.081456 39.6014743,104.262988 L17.2909008,82.8513317 C8.1261102,74.0558004 7.82676637,59.4960828 16.6222976,50.3312922 C16.8405316,50.1038963 17.0634165,49.8810101 17.2908113,49.662775 Z" id="Path" fill="#e2fc2a"></path>
            <circle id="Oval" stroke="#1F1A17" stroke-width="0.0762" fill="#e2fc2a" transform="translate(68.9073, 113.3169) rotate(-5) translate(-68.9073, -113.3169)" cx="68.9072664" cy="113.316908" r="14.5"></circle>
        </g>
    </g>
</svg>